<svg xmlns="http://www.w3.org/2000/svg" width="18.862" height="18.868" viewBox="0 0 18.862 18.868">
  <path id="call" d="M137.478,63.49a4.314,4.314,0,0,0-1.054-.573,21.461,21.461,0,0,0-3.254-.985,2.271,2.271,0,0,0-1.306-.023,1.931,1.931,0,0,0-.8.665c-.069.092-.161.183-.229.275-.183.183-.688.092-1.306-.252a10.334,10.334,0,0,1-2.361-1.834,10.493,10.493,0,0,1-1.834-2.361c-.344-.619-.435-1.123-.252-1.306.069-.069.161-.137.275-.229a1.93,1.93,0,0,0,.665-.8A2.085,2.085,0,0,0,126,54.758a21.483,21.483,0,0,0-.985-3.254,3.937,3.937,0,0,0-.573-1.054,1.918,1.918,0,0,0-1.146-.733,2.324,2.324,0,0,0-1.925.688,5.339,5.339,0,0,0-1.261,1.581,5.615,5.615,0,0,0-.642,1.925,8.6,8.6,0,0,0,1.215,5.271,19,19,0,0,0,3.415,4.675,20.26,20.26,0,0,0,4.675,3.415,9.655,9.655,0,0,0,4.4,1.283,5.36,5.36,0,0,0,.871-.069,5.8,5.8,0,0,0,3.507-1.9,2.28,2.28,0,0,0,.688-1.925,2.123,2.123,0,0,0-.756-1.168Z" transform="translate(-119.4 -49.687)" fill="#3e2313"/>
</svg>
