<svg xmlns="http://www.w3.org/2000/svg" width="22" height="17.378" viewBox="0 0 22 17.378">
  <g id="order" transform="translate(0)">
    <path id="Path_38271" data-name="Path 38271" d="M182.85,132.059v2.455h-22v-2.455a1.264,1.264,0,0,1,1.306-1.214h19.387a1.264,1.264,0,0,1,1.306,1.214Z" transform="translate(-160.85 -130.845)" fill="#3e2313"/>
    <path id="Rectangle_2686" data-name="Rectangle 2686" d="M0,0H22a0,0,0,0,1,0,0V10a2,2,0,0,1-2,2H2a2,2,0,0,1-2-2V0A0,0,0,0,1,0,0Z" transform="translate(0 5.378)" fill="#3e2313"/>
  </g>
</svg>
