<svg xmlns="http://www.w3.org/2000/svg" width="20.697" height="20.697" viewBox="0 0 20.697 20.697">
  <path id="whatsapp" d="M12.786,2.25A10.122,10.122,0,0,0,2.626,12.332a9.978,9.978,0,0,0,1.458,5.206L2.25,22.947,7.875,21.16a10.178,10.178,0,0,0,15.072-8.828A10.122,10.122,0,0,0,12.786,2.25Zm5.052,13.911a2.624,2.624,0,0,1-1.8,1.158c-.476.025-.49.369-3.088-.759A10.6,10.6,0,0,1,8.67,12.51a4.983,4.983,0,0,1-.959-2.7A2.879,2.879,0,0,1,8.7,7.7a1,1,0,0,1,.7-.3c.2,0,.337-.006.488,0s.378-.032.575.492.667,1.809.727,1.94a.471.471,0,0,1,0,.451,1.765,1.765,0,0,1-.275.42c-.136.145-.285.325-.406.437s-.276.257-.134.521A7.775,7.775,0,0,0,11.76,13.5,7.089,7.089,0,0,0,13.8,14.85c.255.139.407.123.565-.043s.676-.727.859-.978.354-.2.589-.108,1.486.765,1.74.9.425.209.486.319A2.134,2.134,0,0,1,17.839,16.161Z" transform="translate(-2.25 -2.25)" fill="#fff"/>
</svg>
